<svg width="24" height="25" viewBox="0 0 24 25" fill="none" xmlns="http://www.w3.org/2000/svg">
<path d="M12 3.125C9.61305 3.125 7.32387 4.07321 5.63604 5.76104C3.94821 7.44887 3 9.73805 3 12.125C3 14.5119 3.94821 16.8011 5.63604 18.489C7.32387 20.1768 9.61305 21.125 12 21.125C12.83 21.125 13.5 20.455 13.5 19.625C13.5 19.235 13.35 18.885 13.11 18.615C12.88 18.355 12.73 18.005 12.73 17.625C12.73 16.795 13.4 16.125 14.23 16.125H16C18.76 16.125 21 13.885 21 11.125C21 6.705 16.97 3.125 12 3.125ZM6.5 12.125C5.67 12.125 5 11.455 5 10.625C5 9.795 5.67 9.125 6.5 9.125C7.33 9.125 8 9.795 8 10.625C8 11.455 7.33 12.125 6.5 12.125ZM9.5 8.125C8.67 8.125 8 7.455 8 6.625C8 5.795 8.67 5.125 9.5 5.125C10.33 5.125 11 5.795 11 6.625C11 7.455 10.33 8.125 9.5 8.125ZM14.5 8.125C13.67 8.125 13 7.455 13 6.625C13 5.795 13.67 5.125 14.5 5.125C15.33 5.125 16 5.795 16 6.625C16 7.455 15.33 8.125 14.5 8.125ZM17.5 12.125C16.67 12.125 16 11.455 16 10.625C16 9.795 16.67 9.125 17.5 9.125C18.33 9.125 19 9.795 19 10.625C19 11.455 18.33 12.125 17.5 12.125Z" fill="white"/>
</svg>
