<svg width="24" height="25" viewBox="0 0 24 25" fill="none" xmlns="http://www.w3.org/2000/svg">
<path d="M3.60059 12.1666H15.3612M15.3612 12.1666L12.421 9.64648M15.3612 12.1666L12.421 14.6867" stroke="white" stroke-width="1.5" stroke-linecap="round" stroke-linejoin="round"/>
<path d="M9.48169 7.9673C9.49177 6.14021 9.57325 5.15064 10.2184 4.50549C10.9568 3.76709 12.1446 3.76709 14.5203 3.76709H15.3603C17.7368 3.76709 18.9246 3.76709 19.663 4.50549C20.4006 5.24304 20.4006 6.4317 20.4006 8.80734V15.5277C20.4006 17.9033 20.4006 19.092 19.663 19.8295C18.9238 20.5679 17.7368 20.5679 15.3603 20.5679H14.5203C12.1446 20.5679 10.9568 20.5679 10.2184 19.8295C9.57325 19.1844 9.49177 18.1948 9.48169 16.3677" stroke="white" stroke-width="1.5" stroke-linecap="round"/>
</svg>
