<svg width="24" height="25" viewBox="0 0 24 25" fill="none" xmlns="http://www.w3.org/2000/svg">
<path d="M9.6 15.725L11 14.275L8.85 12.125L11 9.975L9.6 8.525L6 12.125L9.6 15.725ZM14.4 15.725L18 12.125L14.4 8.525L13 9.975L15.15 12.125L13 14.275L14.4 15.725ZM5 21.125C4.45 21.125 3.97933 20.9293 3.588 20.538C3.19667 20.1467 3.00067 19.6757 3 19.125V5.125C3 4.575 3.196 4.10433 3.588 3.713C3.98 3.32167 4.45067 3.12567 5 3.125H9.2C9.41667 2.525 9.77933 2.04167 10.288 1.675C10.7967 1.30833 11.3673 1.125 12 1.125C12.6327 1.125 13.2037 1.30833 13.713 1.675C14.2223 2.04167 14.5847 2.525 14.8 3.125H19C19.55 3.125 20.021 3.321 20.413 3.713C20.805 4.105 21.0007 4.57567 21 5.125V19.125C21 19.675 20.8043 20.146 20.413 20.538C20.0217 20.93 19.5507 21.1257 19 21.125H5ZM12 4.375C12.2167 4.375 12.396 4.304 12.538 4.162C12.68 4.02 12.7507 3.841 12.75 3.625C12.7493 3.409 12.6783 3.23 12.537 3.088C12.3957 2.946 12.2167 2.875 12 2.875C11.7833 2.875 11.6043 2.946 11.463 3.088C11.3217 3.23 11.2507 3.409 11.25 3.625C11.2493 3.841 11.3203 4.02033 11.463 4.163C11.6057 4.30567 11.7847 4.37633 12 4.375Z" fill="white"/>
</svg>
