<svg width="24" height="25" viewBox="0 0 24 25" fill="none" xmlns="http://www.w3.org/2000/svg">
<path d="M9.45101 22.1245C9.33932 22.1246 9.22896 22.1002 9.12769 22.0531C9.02642 22.006 8.9367 21.9373 8.86482 21.8518C8.79295 21.7663 8.74067 21.6661 8.71166 21.5583C8.68265 21.4504 8.67761 21.3375 8.69689 21.2275V21.2229L9.86806 14.7917H5.33379C5.20793 14.7917 5.08465 14.756 4.9782 14.6889C4.87175 14.6217 4.78648 14.5258 4.73227 14.4122C4.67805 14.2987 4.65709 14.172 4.67182 14.047C4.68654 13.9221 4.73636 13.8038 4.81549 13.7059L13.947 2.41752C14.0509 2.28558 14.1952 2.19132 14.3578 2.14914C14.5203 2.10696 14.6923 2.1192 14.8472 2.18398C15.0022 2.24875 15.1317 2.3625 15.2159 2.50783C15.3001 2.65316 15.3344 2.82207 15.3135 2.98873C15.3135 3.00123 15.3102 3.01331 15.3081 3.02581L14.1328 9.45871H18.6662C18.7921 9.45872 18.9154 9.49436 19.0218 9.56151C19.1283 9.62866 19.2135 9.72457 19.2677 9.83815C19.322 9.95173 19.3429 10.0783 19.3282 10.2033C19.3135 10.3283 19.2636 10.4466 19.1845 10.5445L10.0518 21.8329C9.98004 21.9235 9.88875 21.9968 9.78473 22.0473C9.68071 22.0978 9.56664 22.1242 9.45101 22.1245Z" fill="white"/>
</svg>
